<svg xmlns="http://www.w3.org/2000/svg" width="36.669" height="34.721" viewBox="0 0 36.669 34.721">
  <g id="icon_annual_revenue" data-name="icon annual revenue" transform="translate(1923.327 -5341.64)">
    <g id="Group_5831" data-name="Group 5831" transform="translate(-1913.562 5342.39)">
      <line id="Line_50" data-name="Line 50" y2="5.856" transform="translate(17.12 0)" fill="none" stroke="#018dc1" stroke-linecap="round" stroke-miterlimit="10" stroke-width="1.5"/>
      <line id="Line_51" data-name="Line 51" y2="5.856" transform="translate(0 0)" fill="none" stroke="#018dc1" stroke-linecap="round" stroke-miterlimit="10" stroke-width="1.5"/>
    </g>
    <path id="Path_22955" data-name="Path 22955" d="M-1917.317,5360.537h-3.278a1.962,1.962,0,0,0-1.981,1.93v26.245a1.962,1.962,0,0,0,1.981,1.93h31.206a1.962,1.962,0,0,0,1.982-1.93v-2.681" transform="translate(0 -15.031)" fill="none" stroke="#018dc1" stroke-linecap="round" stroke-miterlimit="10" stroke-width="1.5"/>
    <line id="Line_52" data-name="Line 52" x1="9.305" transform="translate(-1909.728 5345.505)" fill="none" stroke="#018dc1" stroke-linecap="round" stroke-miterlimit="10" stroke-width="1.5"/>
    <path id="Path_22956" data-name="Path 22956" d="M-1743.077,5371.925V5362.4a1.93,1.93,0,0,0-1.982-1.86h-3.267" transform="translate(-144.331 -15.031)" fill="none" stroke="#018dc1" stroke-linecap="round" stroke-miterlimit="10" stroke-width="1.5"/>
    <rect id="Rectangle_734" data-name="Rectangle 734" width="15.405" height="15.405" rx="7.702" transform="translate(-1904.144 5356.915)" fill="none" stroke="#354a6a" stroke-linecap="round" stroke-miterlimit="10" stroke-width="1.5"/>
    <rect id="Rectangle_735" data-name="Rectangle 735" width="4.576" height="4.576" rx="2.288" transform="translate(-1919.811 5351.291)" fill="none" stroke="#018dc1" stroke-linecap="round" stroke-miterlimit="10" stroke-width="1.5"/>
    <rect id="Rectangle_736" data-name="Rectangle 736" width="4.576" height="4.576" rx="2.288" transform="translate(-1912.849 5351.291)" fill="none" stroke="#018dc1" stroke-linecap="round" stroke-miterlimit="10" stroke-width="1.5"/>
    <rect id="Rectangle_737" data-name="Rectangle 737" width="4.576" height="4.576" rx="2.288" transform="translate(-1919.811 5357.945)" fill="none" stroke="#018dc1" stroke-linecap="round" stroke-miterlimit="10" stroke-width="1.5"/>
    <rect id="Rectangle_738" data-name="Rectangle 738" width="4.576" height="4.576" rx="2.288" transform="translate(-1912.849 5357.945)" fill="none" stroke="#018dc1" stroke-linecap="round" stroke-miterlimit="10" stroke-width="1.5"/>
    <rect id="Rectangle_739" data-name="Rectangle 739" width="4.576" height="4.576" rx="2.288" transform="translate(-1919.811 5364.6)" fill="none" stroke="#018dc1" stroke-linecap="round" stroke-miterlimit="10" stroke-width="1.5"/>
    <rect id="Rectangle_740" data-name="Rectangle 740" width="4.576" height="4.576" rx="2.288" transform="translate(-1912.849 5364.6)" fill="none" stroke="#018dc1" stroke-linecap="round" stroke-miterlimit="10" stroke-width="1.5"/>
    <rect id="Rectangle_741" data-name="Rectangle 741" width="4.576" height="4.576" rx="2.288" transform="translate(-1905.886 5351.291)" fill="none" stroke="#018dc1" stroke-linecap="round" stroke-miterlimit="10" stroke-width="1.5"/>
    <g id="Group_5832" data-name="Group 5832" transform="translate(-1898.361 5359.328)">
      <path id="Path_22957" data-name="Path 22957" d="M-1781.549,5456.266a2.847,2.847,0,0,0,1.887.681,1.952,1.952,0,0,0,1.952-1.952c0-2.654-3.839-1.378-3.839-3.91a1.9,1.9,0,0,1,1.887-1.952,3.351,3.351,0,0,1,1.952.607" transform="translate(1781.549 -5447.742)" fill="none" stroke="#018dc1" stroke-linecap="round" stroke-miterlimit="10" stroke-width="1.5"/>
      <line id="Line_53" data-name="Line 53" y2="1.096" transform="translate(1.919 0)" fill="none" stroke="#018dc1" stroke-linecap="round" stroke-miterlimit="10" stroke-width="1.5"/>
      <line id="Line_54" data-name="Line 54" y2="1.096" transform="translate(1.919 9.481)" fill="none" stroke="#018dc1" stroke-linecap="round" stroke-miterlimit="10" stroke-width="1.5"/>
    </g>
  </g>
</svg>
